<svg xmlns="http://www.w3.org/2000/svg" width="200" height="200" viewBox="0 0 69 69" shape-rendering="crispEdges"><path fill="#FFFFFF" d="M0 0h69v69H0z"/><path stroke="#000000" d="M20 20.5h7m1 0h1m2 0h1m1 0h3m2 0h3m1 0h7M20 21.5h1m5 0h1m1 0h1m1 0h2m1 0h1m2 0h3m1 0h1m1 0h1m5 0h1M20 22.5h1m1 0h3m1 0h1m2 0h1m1 0h2m3 0h1m1 0h1m3 0h1m1 0h3m1 0h1M20 23.5h1m1 0h3m1 0h1m1 0h1m1 0h3m1 0h2m1 0h1m2 0h1m1 0h1m1 0h3m1 0h1M20 24.5h1m1 0h3m1 0h1m2 0h1m2 0h1m1 0h1m1 0h2m1 0h1m2 0h1m1 0h3m1 0h1M20 25.5h1m5 0h1m2 0h5m1 0h2m1 0h3m1 0h1m5 0h1M20 26.5h7m1 0h1m1 0h1m1 0h1m1 0h1m1 0h1m1 0h1m1 0h1m1 0h7M28 27.5h1m6 0h3m2 0h1M20 28.5h1m1 0h2m1 0h3m1 0h1m2 0h2m1 0h5m2 0h1m2 0h1m1 0h2M20 29.5h1m1 0h1m5 0h1m4 0h3m3 0h2m1 0h3m3 0h1M21 30.5h1m1 0h4m1 0h2m1 0h1m1 0h1m4 0h1m1 0h2m1 0h1m2 0h2M22 31.5h1m1 0h1m5 0h1m1 0h1m5 0h1m2 0h2m1 0h1m3 0h1M21 32.5h1m1 0h5m3 0h2m1 0h4m1 0h1m5 0h2M20 33.5h2m10 0h1m1 0h6m2 0h1m3 0h3M20 34.5h2m1 0h1m2 0h1m1 0h2m1 0h3m3 0h1m1 0h2m1 0h1m3 0h3M20 35.5h1m1 0h1m5 0h3m3 0h2m2 0h7m2 0h1M20 36.5h2m1 0h1m1 0h2m2 0h2m1 0h1m1 0h2m2 0h3m3 0h2m1 0h1M22 37.5h1m1 0h1m2 0h2m2 0h2m1 0h2m7 0h1m1 0h3M20 38.5h1m2 0h1m2 0h2m2 0h1m2 0h3m2 0h1m1 0h1m1 0h3m1 0h1M22 39.5h4m1 0h3m3 0h3m1 0h2m3 0h3m1 0h1M21 40.5h1m2 0h3m1 0h7m1 0h3m1 0h7M28 41.5h1m2 0h2m3 0h2m2 0h1m3 0h5M20 42.5h7m1 0h1m1 0h2m2 0h1m2 0h1m1 0h2m1 0h1m1 0h2m1 0h1M20 43.5h1m5 0h1m1 0h1m2 0h6m1 0h1m1 0h1m3 0h2M20 44.5h1m1 0h3m1 0h1m3 0h2m3 0h4m1 0h5m1 0h2M20 45.5h1m1 0h3m1 0h1m1 0h1m3 0h1m2 0h2m2 0h1m1 0h1m1 0h3m2 0h1M20 46.5h1m1 0h3m1 0h1m1 0h1m1 0h2m1 0h1m3 0h2m1 0h1m2 0h1m2 0h1m1 0h1M20 47.5h1m5 0h1m2 0h3m1 0h3m4 0h2m1 0h1m1 0h1m1 0h1M20 48.5h7m1 0h2m2 0h1m1 0h1m1 0h1m1 0h5m4 0h1"/></svg>
