<svg xmlns="http://www.w3.org/2000/svg" width="300" height="300" viewBox="0 0 109 109" shape-rendering="crispEdges"><path fill="#0000FF" d="M0 0h109v109H0z"/><path stroke="#FFFFFF" d="M40 40.5h7m1 0h1m2 0h1m1 0h3m2 0h3m1 0h7M40 41.5h1m5 0h1m1 0h1m1 0h2m1 0h1m2 0h3m1 0h1m1 0h1m5 0h1M40 42.5h1m1 0h3m1 0h1m2 0h1m1 0h2m3 0h1m1 0h1m3 0h1m1 0h3m1 0h1M40 43.5h1m1 0h3m1 0h1m1 0h1m1 0h3m1 0h2m1 0h1m2 0h1m1 0h1m1 0h3m1 0h1M40 44.5h1m1 0h3m1 0h1m2 0h1m2 0h1m1 0h1m1 0h2m1 0h1m2 0h1m1 0h3m1 0h1M40 45.5h1m5 0h1m2 0h5m1 0h2m1 0h3m1 0h1m5 0h1M40 46.5h7m1 0h1m1 0h1m1 0h1m1 0h1m1 0h1m1 0h1m1 0h1m1 0h7M48 47.5h1m6 0h3m2 0h1M40 48.5h1m1 0h2m1 0h3m1 0h1m2 0h2m1 0h5m2 0h1m2 0h1m1 0h2M40 49.5h1m1 0h1m5 0h1m4 0h3m3 0h2m1 0h3m3 0h1M41 50.5h1m1 0h4m1 0h2m1 0h1m1 0h1m4 0h1m1 0h2m1 0h1m2 0h2M42 51.5h1m1 0h1m5 0h1m1 0h1m5 0h1m2 0h2m1 0h1m3 0h1M41 52.5h1m1 0h5m3 0h2m1 0h4m1 0h1m5 0h2M40 53.5h2m10 0h1m1 0h6m2 0h1m3 0h3M40 54.5h2m1 0h1m2 0h1m1 0h2m1 0h3m3 0h1m1 0h2m1 0h1m3 0h3M40 55.5h1m1 0h1m5 0h3m3 0h2m2 0h7m2 0h1M40 56.5h2m1 0h1m1 0h2m2 0h2m1 0h1m1 0h2m2 0h3m3 0h2m1 0h1M42 57.5h1m1 0h1m2 0h2m2 0h2m1 0h2m7 0h1m1 0h3M40 58.5h1m2 0h1m2 0h2m2 0h1m2 0h3m2 0h1m1 0h1m1 0h3m1 0h1M42 59.5h4m1 0h3m3 0h3m1 0h2m3 0h3m1 0h1M41 60.5h1m2 0h3m1 0h7m1 0h3m1 0h7M48 61.5h1m2 0h2m3 0h2m2 0h1m3 0h5M40 62.5h7m1 0h1m1 0h2m2 0h1m2 0h1m1 0h2m1 0h1m1 0h2m1 0h1M40 63.5h1m5 0h1m1 0h1m2 0h6m1 0h1m1 0h1m3 0h2M40 64.5h1m1 0h3m1 0h1m3 0h2m3 0h4m1 0h5m1 0h2M40 65.5h1m1 0h3m1 0h1m1 0h1m3 0h1m2 0h2m2 0h1m1 0h1m1 0h3m2 0h1M40 66.5h1m1 0h3m1 0h1m1 0h1m1 0h2m1 0h1m3 0h2m1 0h1m2 0h1m2 0h1m1 0h1M40 67.5h1m5 0h1m2 0h3m1 0h3m4 0h2m1 0h1m1 0h1m1 0h1M40 68.5h7m1 0h2m2 0h1m1 0h1m1 0h1m1 0h5m4 0h1"/></svg>
